HIERARCHY
ROOT root
{
	OFFSET	0	13.1	24.9
	CHANNELS 6  Xposition Yposition Zposition Xrotation Yrotation Zrotation
	JOINT spine_1
	{
		OFFSET	0	9.99999	0
		CHANNELS 3  Xrotation Yrotation Zrotation
		JOINT spine_2
		{
			OFFSET	0	112	-10
			CHANNELS 3  Xrotation Yrotation Zrotation
			JOINT spine_3
			{
				OFFSET	0	206.5	19.3
				CHANNELS 3  Xrotation Yrotation Zrotation
				JOINT spine_4
				{
					OFFSET	0	110.4	14.6
					CHANNELS 3  Xrotation Yrotation Zrotation
					JOINT neck_1
					{
						OFFSET	0	71.8	-50.3
						CHANNELS 3  Xrotation Yrotation Zrotation
						JOINT neck_2
						{
							OFFSET	0	86.2	-25.8
							CHANNELS 3  Xrotation Yrotation Zrotation
							JOINT head_ee
							{
								OFFSET	0	179.8	-8.7
								CHANNELS 3  Xrotation Yrotation Zrotation
								End Site
								{
									OFFSET	1	0	0
								}
							}
						}
					}
					JOINT left_clavicle
					{
						OFFSET	-43.2	22.4	-70.8
						CHANNELS 3  Xrotation Yrotation Zrotation
						JOINT left_shoulder
						{
							OFFSET	-93.9	-5.79999	48.7
							CHANNELS 3  Xrotation Yrotation Zrotation
							JOINT left_elbow
							{
								OFFSET	-291.4	-30.8	15.2
								CHANNELS 3  Xrotation Yrotation Zrotation
								JOINT left_lowarm_twist
								{
									OFFSET	-110.7	-3.89999	13.6
									CHANNELS 3  Xrotation Yrotation Zrotation
									JOINT left_hand
									{
										OFFSET	-110.7	-3.89999	13.6
										CHANNELS 3  Xrotation Yrotation Zrotation
										JOINT left_ee
										{
											OFFSET	-80.8	-5.10001	12.1
											CHANNELS 3  Xrotation Yrotation Zrotation
											End Site
											{
												OFFSET	1	0	0
											}
										}
									}
								}
							}
						}
					}
					JOINT right_clavicle
					{
						OFFSET	43.2	22.4	-70.8
						CHANNELS 3  Xrotation Yrotation Zrotation
						JOINT right_shoulder
						{
							OFFSET	93.9	-5.79999	48.7
							CHANNELS 3  Xrotation Yrotation Zrotation
							JOINT right_elbow
							{
								OFFSET	291.4	-30.8	15.2
								CHANNELS 3  Xrotation Yrotation Zrotation
								JOINT right_lowarm_twist
								{
									OFFSET	110.7	-3.89999	13.6
									CHANNELS 3  Xrotation Yrotation Zrotation
									JOINT right_hand
									{
										OFFSET	110.7	-3.89999	13.6
										CHANNELS 3  Xrotation Yrotation Zrotation
										JOINT right_ee
										{
											OFFSET	80.8	-5.10001	12.1
											CHANNELS 3  Xrotation Yrotation Zrotation
											End Site
											{
												OFFSET	1	0	0
											}
										}
									}
								}
							}
						}
					}
				}
			}
		}
	}
	JOINT left_hip
	{
		OFFSET	-82.8	-127.5	0.300001
		CHANNELS 3  Xrotation Yrotation Zrotation
		JOINT left_knee
		{
			OFFSET	-28.2	-396.7	2.2
			CHANNELS 3  Xrotation Yrotation Zrotation
			JOINT left_ankle
			{
				OFFSET	-11.7	-411.3	35.4
				CHANNELS 3  Xrotation Yrotation Zrotation
				JOINT left_toes
				{
					OFFSET	0	-60	-88.6
					CHANNELS 3  Xrotation Yrotation Zrotation
					JOINT left_foot_ee
					{
						OFFSET	-22.5	-16.5	-42.2
						CHANNELS 3  Xrotation Yrotation Zrotation
						End Site
						{
							OFFSET	1	0	0
						}
					}
				}
			}
		}
	}
	JOINT right_hip
	{
		OFFSET	82.8	-127.5	0.300001
		CHANNELS 3  Xrotation Yrotation Zrotation
		JOINT right_knee
		{
			OFFSET	28.2	-396.7	2.2
			CHANNELS 3  Xrotation Yrotation Zrotation
			JOINT right_ankle
			{
				OFFSET	11.7	-411.3	35.4
				CHANNELS 3  Xrotation Yrotation Zrotation
				JOINT right_toes
				{
					OFFSET	0	-60	-88.6
					CHANNELS 3  Xrotation Yrotation Zrotation
					JOINT right_foot_ee
					{
						OFFSET	22.5	-16.5	-42.2
						CHANNELS 3  Xrotation Yrotation Zrotation
						End Site
						{
							OFFSET	1	0	0
						}
					}
				}
			}
		}
	}
}
MOTION
Frames: 5
Frame Time: 0.02
470.500570315 708.255 -1199.21747397 -170.904781265 -46.5874325809 -176.989344989 0.798448 -0.100024 0.0873485 0.798446 -0.10538 0.0808067 0.798293 -0.119206 0.0585198 0.798305 -0.108468 0.0766117 3.0052 1.97733 -2.33316 3.06121 5.43575 -2.46315 -0.0 0.0 -0.0 10.2725 17.6786 18.2924 -22.9457 -53.6585 43.8966 0.769653 -20.87 0.141746 9.5487 0.237301 -1.19527 -2.14114 8.93086 -10.1438 -0.0 0.0 -0.0 7.20959 -20.5906 -13.0243 -86.3505 67.863 -1.89985 0.203517 5.75705 -0.0102332 52.4416 1.14909 6.36878 2.60014 17.8922 -9.76483 0.0 0.0 0.0 14.1191 -15.7866 7.94812 -19.0047 0.306153 2.88702 33.9714 15.0957 -4.3556 -16.9841 0.0 0.0 -0.0 0.0 -0.0 30.4395 15.5455 5.69331 -59.0826 2.10174 -8.42359 -10.555 -30.2334 -1.69299 12.3874 -0.0 -0.0 0.0 0.0 0.0 
470.366915595 708.255 -1197.48836505 -171.10786724 -45.3469340981 -177.271807178 0.798448 -0.100024 0.0873485 0.798446 -0.10538 0.0808067 0.798293 -0.119206 0.0585198 0.798305 -0.108468 0.0766117 3.0052 1.97733 -2.33316 3.06121 5.43575 -2.46315 -0.0 0.0 -0.0 10.2725 17.6786 18.2924 -22.9457 -53.6585 43.8966 0.769653 -20.87 0.141746 9.5487 0.237301 -1.19527 -2.14114 8.93086 -10.1438 -0.0 0.0 -0.0 7.20959 -20.5906 -13.0243 -86.3505 67.863 -1.89985 0.203517 5.75705 -0.0102332 52.4416 1.14909 6.36878 2.60014 17.8922 -9.76483 0.0 0.0 0.0 14.1191 -15.7866 7.94812 -19.0047 0.306153 2.88702 33.9714 15.0957 -4.3556 -16.9841 0.0 0.0 -0.0 0.0 -0.0 30.4395 15.5455 5.69331 -59.0826 2.10174 -8.42359 -10.555 -30.2334 -1.69299 12.3874 -0.0 -0.0 0.0 0.0 0.0 
472.111929016 713.81 -1192.94111871 -169.785538398 -44.1930926634 -175.969359293 1.14242 -0.0363546 0.204854 1.14245 -0.0493164 0.202126 1.14227 -0.0869465 0.189017 1.14223 -0.0560037 0.200376 3.55005 1.77705 -3.07367 3.62714 5.72321 -3.33819 -0.0 0.0 -0.0 10.0836 15.3124 18.333 -23.8792 -53.4504 40.1238 0.807878 -21.8111 0.155656 10.2752 0.247148 -1.28754 -1.76184 7.86345 -8.1726 -0.0 0.0 -0.0 8.11654 -21.473 -14.3069 -87.2192 63.9781 -2.11713 0.39371 11.0362 -0.0380356 50.8508 1.03039 6.20321 3.04879 18.63 -12.4404 0.0 0.0 0.0 14.6576 -14.5604 7.16685 -19.1782 0.304512 2.91358 31.381 15.7955 -4.09337 -17.917 0.0 0.0 -0.0 0.0 -0.0 33.8484 16.8631 4.12064 -58.6392 2.05485 -8.37382 -12.4618 -29.7968 -1.99714 11.9146 -0.0 -0.0 0.0 0.0 0.0 
486.567368228 715.48 -1186.44319018 -167.626411442 -44.4788253584 -173.171815848 1.50561 0.171536 0.356134 1.50567 0.148527 0.366327 1.50664 0.0784323 0.387433 1.50646 0.138635 0.370184 3.40103 1.90817 -2.44324 3.46018 5.40926 -2.61248 -0.0 0.0 -0.0 10.4928 14.755 19.1337 -22.6408 -53.2633 36.9318 0.809645 -21.8543 0.156314 9.09454 0.230551 -1.13765 -1.80878 2.69374 -10.9175 -0.0 0.0 -0.0 8.7334 -25.41 -14.6599 -86.6621 64.5744 -4.24358 0.374653 10.5142 -0.0344728 50.1565 0.980038 6.12993 2.14263 18.7846 -6.27473 0.0 0.0 0.0 13.0815 -16.4126 6.04654 -15.8818 0.321945 2.40818 31.0415 15.5516 -4.05397 -18.7292 0.0 0.0 -0.0 0.0 -0.0 41.3044 18.2024 1.43097 -49.295 1.16133 -7.24659 -12.9971 -25.0944 -2.02681 11.1591 -0.0 -0.0 0.0 0.0 0.0 
488.593404445 712.801 -1182.06847104 -166.959818778 -44.2210311385 -172.313309615 1.75385 0.235333 0.787244 1.75418 0.184763 0.800622 1.7568 0.0375549 0.820805 1.7559 0.16671 0.804575 3.67588 2.71897 -0.368214 3.70478 5.02972 -0.241229 -0.0 0.0 -0.0 10.3141 13.5913 18.9849 -21.7885 -53.0759 35.1359 0.780347 -21.1345 0.145578 10.4017 0.248743 -1.30362 -1.92148 0.170082 -12.8642 -0.0 0.0 -0.0 8.44528 -24.1299 -14.442 -83.9211 64.6696 -8.02163 0.511361 14.215 -0.0637616 49.0799 0.903733 6.01513 2.15204 16.4762 -7.4091 0.0 0.0 0.0 13.1675 -13.3445 5.11622 -15.4872 0.322082 2.34764 29.4125 17.4741 -3.89974 -19.068 0.0 0.0 -0.0 0.0 -0.0 42.5466 14.6744 -1.13043 -44.2027 0.755559 -6.57635 -11.2233 -28.7113 -1.78352 11.1814 -0.0 -0.0 0.0 0.0 0.0 
